<?xml version="1.0" encoding="UTF-8" standalone="no"?>
<!-- Created with Inkscape (http://www.inkscape.org/) -->

<svg
   width="75mm"
   height="75mm"
   viewBox="0 0 75 75"
   version="1.1"
   id="svg317"
   inkscape:version="1.2.2 (732a01da63, 2022-12-09)"
   sodipodi:docname="braid_redraw_dude.svg"
   xmlns:inkscape="http://www.inkscape.org/namespaces/inkscape"
   xmlns:sodipodi="http://sodipodi.sourceforge.net/DTD/sodipodi-0.dtd"
   xmlns="http://www.w3.org/2000/svg"
   xmlns:svg="http://www.w3.org/2000/svg">
  <sodipodi:namedview
     id="namedview319"
     pagecolor="#ffffff"
     bordercolor="#000000"
     borderopacity="0.25"
     inkscape:showpageshadow="2"
     inkscape:pageopacity="0.0"
     inkscape:pagecheckerboard="0"
     inkscape:deskcolor="#d1d1d1"
     inkscape:document-units="mm"
     showgrid="false"
     inkscape:zoom="0.74564394"
     inkscape:cx="397.64288"
     inkscape:cy="454.64059"
     inkscape:window-width="1920"
     inkscape:window-height="1017"
     inkscape:window-x="2728"
     inkscape:window-y="-8"
     inkscape:window-maximized="1"
     inkscape:current-layer="layer1" />
  <defs
     id="defs314" />
  <g
     inkscape:label="Layer 1"
     inkscape:groupmode="layer"
     id="layer1">
    <path
       d="m 40.819008,70.112516 c -0.52874,-0.10847 -1.43884,-0.57541 -2.02245,-1.03764 -0.8495,-0.67282 -1.30761,-0.84042 -2.297203,-0.84042 -1.37696,0 -2.04845,-0.2735 -3.11623,-1.26929 -1.08216,-1.00919 -1.196183,-2.156725 -0.36252,-3.648305 0.64996,-1.16291 0.67943,-1.37406 0.5276,-3.77946 -0.13963,-2.212163 -0.0873,-2.731973 0.39765,-3.946593 0.80441,-2.01495 0.74017,-3.11387 -0.2353,-4.0251 -0.77532,-0.72425 -0.79375,-0.80044 -0.79375,-3.28115 0,-2.36207 -0.037,-2.53968 -0.5284,-2.53968 -0.290624,0 -1.003235,0.42898 -1.58358,0.95329 -0.590423,0.53341 -1.516597,1.05695 -2.1028,1.18867 -0.576193,0.12946 -1.466685,0.51976 -1.978866,0.86734 -1.077674,0.73133 -2.961005,1.08775 -3.883734,0.735 -1.315701,-0.50297 -1.882296,-1.72417 -2.228609,-4.8034 -0.165418,-1.47082 0.21228,-3.78883 1.056103,-6.48153 l 0.414567,-1.32291 -0.821335,0.99464 c -0.451736,0.54706 -0.920078,0.93363 -1.040757,0.85904 -0.120682,-0.0746 -0.358923,-0.99842 -0.529426,-2.05298 -0.170505,-1.05455 -0.355288,-2.15549 -0.410628,-2.44654 -0.140589,-0.73934 -1.561351,-2.13365 -4.040722,-3.96548 -2.815302,-2.08003 -3.560379,-3.21413 -3.425838,-5.21459 0.114681,-1.70514 1.80594,-5.45959 2.93878,-6.52384 1.038169,-0.97532 1.553366,-0.59228 2.767126,2.05731 0.937694,2.04694 1.828604,3.19556 2.478582,3.19556 0.105537,0 0.227873,-0.62507 0.271857,-1.38906 0.07072,-1.22832 0.151826,-1.39923 0.700897,-1.47697 0.609219,-0.0863 0.617485,-0.12676 0.438428,-2.14956 -0.157811,-1.78276 0.04461,-4.29359 0.549749,-6.8189 0.07419,-0.37088 0.842772,-1.0788 2.071288,-1.9078 2.17184,-1.4655395 2.946077,-2.3050795 3.202516,-3.4726465 0.109008,-0.496305 0.45411,-0.931489 0.936493,-1.180939 0.420129,-0.21726 0.889193,-0.629179 1.042363,-0.915379 0.599403,-1.119994 1.229736,-1.157657 2.854669,-0.170568 0.832007,0.505412 2.190157,1.172387 3.018127,1.482166 1.39225,0.520904 3.124823,1.995317 3.124823,2.659227 0,0.13836 0.54219,0.38809 1.20486,0.55495 2.262015,0.56958 3.215825,3.2520995 1.954385,5.4965295 -0.654855,1.16516 -0.390315,2.23611 0.6719,2.72009 1.18926,0.54186 0.85312,1.43958 -0.86524,2.3108 -0.652255,0.3307 -1.243165,0.85964 -1.389065,1.2434 -0.37824,0.99483 -0.3075,2.11166 0.15824,2.49818 0.22668,0.18814 0.57769,0.73823 0.78,1.22243 0.20231,0.4842 0.675635,1.02061 1.051825,1.19202 0.50433,0.22978 1.08129,1.13322 2.19656,3.43947 1.67998,3.47401 1.98957,3.69554 3.4487,2.46777 0.95053,-0.79982 1.2649,-0.82524 1.63575,-0.13229 0.21349,0.3989 0.55773,0.5306 1.39837,0.53498 1.42275,0.007 2.85292,0.66611 4.68705,2.15873 2.01348,1.63858 2.35616,1.80065 3.16059,1.4948 0.94536,-0.35942 1.57516,-0.98306 2.17021,-2.14897 0.79679,-1.56118 1.40817,-2.03954 2.6067,-2.03954 h 1.05833 v 2.59024 c 0,2.67017 -0.49708,5.24962 -1.22645,6.36428 -0.22319,0.34109 -0.99364,0.98558 -1.71213,1.43221 -0.84585,0.52582 -1.36344,1.05333 -1.46837,1.49652 -0.26107,1.10277 -0.87095,1.6105 -1.93455,1.6105 -1.0069,0 -1.76456,-0.6022 -2.74257,-2.17983 -0.72876,-1.17556 -2.97938,-2.31268 -4.58308,-2.31561 -1.17157,-0.002 -1.51941,0.12734 -2.46525,0.91756 -0.60566,0.50602 -1.82592,1.3063 -2.71167,1.77841 -2.22146,1.18402 -2.7116,2.25409 -2.7027,5.90051 0.004,1.73955 0.16109,3.13808 0.45787,4.08292 0.69679,2.21828 0.59831,3.44009 -0.38687,4.8001 -0.863,1.191333 -1.24665,2.985533 -0.91822,4.294113 0.0881,0.35097 0.86396,1.47843 1.72416,2.50547 2.2612,2.699775 2.61855,4.269535 1.15075,5.055015 -0.69467,0.37174 -2.72152,0.5439 -3.799555,0.32273 z m -3.8477,-44.846978 c 0.0783,-0.20405 0.0794,-0.43398 0.002,-0.51094 -0.243023,-0.24302 -0.881943,0.12889 -0.881943,0.51338 0,0.48019 0.69504,0.47826 0.879513,-0.002 z"
       style="fill:#000000;stroke-width:0.264583"
       id="path312" />
  </g>
</svg>
