<?xml version="1.0" encoding="UTF-8" standalone="no"?>
<svg
   version="1.1"
   width="256"
   height="256"
   id="svg7"
   sodipodi:docname="lov.svg"
   inkscape:version="1.3 (0e150ed6c4, 2023-07-21)"
   xmlns:inkscape="http://www.inkscape.org/namespaces/inkscape"
   xmlns:sodipodi="http://sodipodi.sourceforge.net/DTD/sodipodi-0.dtd"
   xmlns="http://www.w3.org/2000/svg"
   xmlns:svg="http://www.w3.org/2000/svg">
  <defs
     id="defs7" />
  <sodipodi:namedview
     id="namedview7"
     pagecolor="#ffffff"
     bordercolor="#000000"
     borderopacity="0.25"
     inkscape:showpageshadow="2"
     inkscape:pageopacity="0.0"
     inkscape:pagecheckerboard="0"
     inkscape:deskcolor="#d1d1d1"
     inkscape:zoom="3.015625"
     inkscape:cx="127.8342"
     inkscape:cy="101.4715"
     inkscape:window-width="1920"
     inkscape:window-height="1010"
     inkscape:window-x="2873"
     inkscape:window-y="-6"
     inkscape:window-maximized="1"
     inkscape:current-layer="svg7" />
  <path
     d="M0 0 C11.04204285 5.89965607 16.98927476 15.49718255 21.06640625 27.01171875 C24.27391826 38.01506711 23.03324327 46.97978862 18.05859375 57.2109375 C15.7244097 63.36078035 17.53867678 68.57309895 19.4375 74.5625 C19.89650068 76.04235934 20.35358356 77.5228151 20.80859375 79.00390625 C21.01282959 79.65174072 21.21706543 80.2995752 21.42749023 80.96704102 C26.32228924 98.34827399 22.84688072 116.38763879 17 133 C16.67 133.99 16.34 134.98 16 136 C16.75925781 136.10957031 17.51851563 136.21914062 18.30078125 136.33203125 C19.29464844 136.49058594 20.28851563 136.64914063 21.3125 136.8125 C22.79169922 137.03873047 22.79169922 137.03873047 24.30078125 137.26953125 C27.17147346 138.04640454 28.24798212 138.64107396 30 141 C30.83568249 144.02131362 31.18220712 146.18006794 30.5 149.25 C29 151 29 151 25.6875 151.875 C21.19606489 153.24526834 19.45156034 155.19931054 17 159 C16.52820313 159.72832031 16.05640625 160.45664063 15.5703125 161.20703125 C10.59683921 169.59493569 7.87246027 178.74089933 5 188 C4.34 188 3.68 188 3 188 C3.04471436 188.86882812 3.08942871 189.73765625 3.13549805 190.6328125 C2.99006944 194.24677892 2.23574599 196.55756942 0.83203125 199.875 C0.35685059 201.01155029 -0.11833008 202.14810059 -0.60791016 203.3190918 C-1.13403229 204.54623612 -1.66057257 205.77320125 -2.1875 207 C-2.72517795 208.27158229 -3.26211212 209.5434793 -3.79833984 210.81567383 C-5.22221235 214.1843574 -6.66085702 217.54653483 -8.10333252 220.9072876 C-9.00988739 223.02307597 -9.91165508 225.14084457 -10.81201172 227.25927734 C-12.29060028 230.73740485 -13.77537108 234.21281598 -15.26602173 237.68579102 C-15.83742236 239.01734714 -16.40771978 240.34937723 -16.97689819 241.68188477 C-17.77382359 243.54399707 -18.57814803 245.40293758 -19.3828125 247.26171875 C-19.84059082 248.32350342 -20.29836914 249.38528809 -20.77001953 250.47924805 C-22 253 -22 253 -24 255 C-26.69471291 255.25217118 -29.24215124 255.37025884 -31.9375 255.375 C-32.66646484 255.39949219 -33.39542969 255.42398437 -34.14648438 255.44921875 C-36.27734375 255.4609375 -36.27734375 255.4609375 -40 255 C-42.38208226 252.42671862 -43.63768768 249.77643424 -44.83203125 246.5078125 C-45.312771 245.21363403 -45.312771 245.21363403 -45.80322266 243.89331055 C-46.13628418 242.97976807 -46.4693457 242.06622559 -46.8125 241.125 C-49.12240452 234.91560774 -51.46598099 228.75623732 -54.125 222.6875 C-56.23633281 217.85996605 -58.17146222 213.00161982 -60 208.0625 C-62.3000418 201.85039608 -64.65948392 195.6734298 -67.19140625 189.55078125 C-68.7142285 185.8169298 -70.05863243 182.03217586 -71.40234375 178.23046875 C-72.30926037 175.77841071 -73.21681776 173.32658957 -74.125 170.875 C-74.52549561 169.68801514 -74.92599121 168.50103027 -75.33862305 167.27807617 C-77.80032524 160.68741343 -77.80032524 160.68741343 -82.97167969 156.19238281 C-86.18818694 154.84897441 -86.18818694 154.84897441 -89.38623047 153.93408203 C-92 153 -92 153 -94 150 C-94.65427509 143.13011152 -94.65427509 143.13011152 -92.625 139.625 C-88.69295907 137.19087942 -84.53156 136.65724916 -80 136 C-80.2165625 135.3915625 -80.433125 134.783125 -80.65625 134.15625 C-83.90515626 123.92821179 -84.87031485 111.62795054 -81.25390625 101.3203125 C-78.14610488 95.56942772 -73.4165762 90.6110508 -68 87 C-66.68 87 -65.36 87 -64 87 C-63.77957031 85.329375 -63.77957031 85.329375 -63.5546875 83.625 C-61.45857921 68.91817207 -58.28736016 55.24230499 -48 44 C-47.34773438 43.20851562 -46.69546875 42.41703125 -46.0234375 41.6015625 C-42.03314053 36.84093793 -38.57001345 33.73245943 -33 31 C-32.195625 30.4225 -31.39125 29.845 -30.5625 29.25 C-26.79676628 27.41305672 -24.16985863 27.58984997 -20 28 C-17.54589642 31.68115537 -17.76712157 33.65293598 -18 38 C-18.33 38.99 -18.66 39.98 -19 41 C-13.49595767 37.89515561 -9.0620784 35.12541815 -6.58984375 29.1328125 C-4.68635454 22.24999719 -6.02094385 17.40354133 -9.09765625 11.140625 C-10.43593021 7.96584522 -10.4731666 5.3797614 -10 2 C-7.70180709 -2.32601019 -4.21139922 -1.01654464 0 0 Z M-41 111 C-42.58038051 117.89907592 -43.37703247 124.55792529 -43.625 131.625 C-43.66367188 132.51445312 -43.70234375 133.40390625 -43.7421875 134.3203125 C-43.90987939 138.39282981 -43.99797783 142.42542483 -43.88671875 146.5 C-44 150 -44 150 -46.1875 152.375 C-48.2384962 154.74159943 -48.2384962 154.74159943 -47.80859375 156.96484375 C-47.00961802 159.70875468 -46.03274736 162.33462563 -45 165 C-44.55785156 166.21429688 -44.11570313 167.42859375 -43.66015625 168.6796875 C-40.73504632 176.68316825 -37.5781512 184.59047782 -34.390625 192.4921875 C-32.48820466 197.29098936 -30.72005775 202.13324837 -29 207 C-26.21213621 203.67759005 -24.75646268 200.27830089 -23.1875 196.25 C-22.80283569 195.26688843 -22.80283569 195.26688843 -22.41040039 194.26391602 C-21.59849288 192.179088 -20.79753135 190.09036653 -20 188 C-19.61424805 186.99138916 -19.61424805 186.99138916 -19.22070312 185.96240234 C-17.69997031 181.97386457 -16.20852318 177.97533376 -14.73339844 173.96972656 C-13.99689627 171.99166414 -13.23859874 170.02303594 -12.4765625 168.0546875 C-12.00480118 166.80744559 -11.5334296 165.56005618 -11.0625 164.3125 C-10.64097656 163.21550781 -10.21945313 162.11851562 -9.78515625 160.98828125 C-8.94468718 157.78948104 -8.86791621 156.09291792 -10 153 C-10.99 152.34 -11.98 151.68 -13 151 C-13.70052461 148.336937 -13.77744818 145.75964263 -14 143 C-14.83144531 142.86722656 -15.66289062 142.73445313 -16.51953125 142.59765625 C-18.14955078 142.33275391 -18.14955078 142.33275391 -19.8125 142.0625 C-21.43091797 141.80146484 -21.43091797 141.80146484 -23.08203125 141.53515625 C-26 141 -26 141 -29 140 C-29.95703125 138.09375 -29.95703125 138.09375 -30.8125 135.5 C-31.14636719 134.52289063 -31.48023438 133.54578125 -31.82421875 132.5390625 C-32.21222656 131.37117188 -32.60023437 130.20328125 -33 129 C-33.76710784 126.72985141 -34.54067625 124.46221916 -35.32299805 122.19726562 C-35.85408236 120.65946533 -36.37779676 119.11909836 -36.89379883 117.57617188 C-38.00130811 113.55041796 -38.00130811 113.55041796 -41 111 Z "
     fill="#010000"
     transform="translate(160,1)"
     id="path1"
     style="fill:#808080" />
  <path
     d="M0 0 C11.73241609 4.08446457 17.80226119 14.44166895 23 25 C25.67125608 33.01376824 24.86657094 42.93757248 21.34765625 50.54296875 C19.77229061 53.41515712 18.0781089 56.20178141 16.375 59 C13.20132357 64.24642014 11.65871206 68.92371733 11 75 C13.46313739 73.17251097 14.83428618 71.77023784 15.48828125 68.73046875 C15.72518293 66.48520654 15.90361349 64.25544422 16 62 C22.60468305 67.56976121 24.16544565 79.76640894 25 88 C26.22861572 105.15401743 22.66539876 118.00304298 16 134 C4.78 134 -6.44 134 -18 134 C-19.7675007 128.7367757 -21.52860623 123.47271693 -23.26904297 118.20068359 C-23.85768948 116.42845258 -24.45990027 114.66072999 -25.06640625 112.89453125 C-27.37499743 105.8795368 -28.47258745 99.57848739 -25.25 92.6875 C-23.55582235 89.65613213 -21.6548394 87.27557663 -19 85 C-23.33838711 85.26293255 -26.02383388 86.96938088 -29.16015625 89.796875 C-37.30155913 99.54581603 -40.21737642 111.55714113 -40.625 123.9375 C-40.74875 127.258125 -40.8725 130.57875 -41 134 C-48.92 134 -56.84 134 -65 134 C-69.83391725 124.33216549 -72.34945955 113.43078391 -69.0625 102.6875 C-66.23051069 96.46259596 -60.62448969 90.74965979 -55 87 C-54.43446685 84.26509367 -54.02468713 81.63850568 -53.6875 78.875 C-51.77143587 65.74362664 -48.11915096 53.96565442 -39 44 C-38.34773438 43.20851562 -37.69546875 42.41703125 -37.0234375 41.6015625 C-33.03314053 36.84093793 -29.57001345 33.73245943 -24 31 C-23.195625 30.4225 -22.39125 29.845 -21.5625 29.25 C-17.79676628 27.41305672 -15.16985863 27.58984997 -11 28 C-8.54589642 31.68115537 -8.76712157 33.65293598 -9 38 C-9.33 38.99 -9.66 39.98 -10 41 C-4.49595767 37.89515561 -0.0620784 35.12541815 2.41015625 29.1328125 C4.3118318 22.25655522 2.99242259 17.395047 -0.10546875 11.14453125 C-1.40454896 8.03014246 -1.3385271 5.31756553 -1 2 C-0.67 1.34 -0.34 0.68 0 0 Z "
     fill="#AA0000"
     transform="translate(151,1)"
     id="path2"
     style="fill:#cccccc" />
  <path
     d="M0 0 C0.83729141 -0.0033284 1.67458282 -0.0066568 2.5372467 -0.01008606 C4.31185353 -0.01515881 6.08646992 -0.01749428 7.86108398 -0.01733398 C10.58267881 -0.01951922 13.30386768 -0.03766758 16.02539062 -0.05664062 C17.74609236 -0.05957467 19.46679602 -0.06155939 21.1875 -0.0625 C22.00524399 -0.06968552 22.82298798 -0.07687103 23.66551208 -0.08427429 C29.43133421 -0.06085329 29.43133421 -0.06085329 31.66015625 2.16796875 C31.12444196 5.70368304 31.12444196 5.70368304 29.66015625 7.16796875 C27.66057261 7.20877658 25.65970371 7.21051231 23.66015625 7.16796875 C25.87126581 14.17210463 28.34196045 21.02516579 31.03515625 27.85546875 C33.57420202 34.30037622 35.97154199 40.77362266 38.23632812 47.31958008 C39.77146906 51.72700226 41.37950247 56.10112536 43.03515625 60.46484375 C43.44781738 61.55265137 43.86047852 62.64045898 44.28564453 63.76123047 C45.10787079 65.92073914 45.93425807 68.07866886 46.76513672 70.23486328 C47.14041504 71.22083496 47.51569336 72.20680664 47.90234375 73.22265625 C48.24120605 74.10421387 48.58006836 74.98577148 48.92919922 75.89404297 C49.66015625 78.16796875 49.66015625 78.16796875 49.66015625 81.16796875 C50.32015625 81.16796875 50.98015625 81.16796875 51.66015625 81.16796875 C51.90121094 79.90726562 52.14226562 78.6465625 52.390625 77.34765625 C53.64535957 71.72705799 55.75891224 66.5947963 57.97265625 61.29296875 C62.10404992 51.18346167 66.03611718 41.0132824 69.84432983 30.77825928 C70.42761076 29.2108324 71.01241783 27.64397255 71.5987854 26.07769775 C72.42679016 23.86451844 73.24943228 21.64942406 74.0703125 19.43359375 C74.31779236 18.77312042 74.56527222 18.11264709 74.82025146 17.43215942 C76.06974389 14.03544298 77.06960948 10.7410965 77.66015625 7.16796875 C76.52578125 7.18859375 75.39140625 7.20921875 74.22265625 7.23046875 C70.66015625 7.16796875 70.66015625 7.16796875 69.66015625 6.16796875 C69.61951793 4.5017976 69.61743525 2.8340878 69.66015625 1.16796875 C74.06587328 -1.03488976 80.04594434 -0.01788072 84.94580078 -0.01733398 C87.15156275 -0.01952272 89.35682641 -0.03768985 91.5625 -0.05664062 C92.9596337 -0.05957418 94.35676978 -0.06155923 95.75390625 -0.0625 C97.02943359 -0.06660889 98.30496094 -0.07071777 99.61914062 -0.07495117 C102.66015625 0.16796875 102.66015625 0.16796875 104.66015625 2.16796875 C104.12444196 5.70368304 104.12444196 5.70368304 102.66015625 7.16796875 C101.54640625 7.29171875 100.43265625 7.41546875 99.28515625 7.54296875 C95.17699845 8.22762156 95.17699845 8.22762156 92.66015625 11.16796875 C91.46885137 13.55346302 90.38288089 15.90422034 89.34765625 18.35546875 C88.88927368 19.42015381 88.88927368 19.42015381 88.42163086 20.50634766 C86.10642338 25.94873681 84.0278328 31.46214517 82.00292969 37.01757812 C79.7815173 43.02914734 77.1857587 48.84610838 74.54443359 54.68286133 C72.67765866 58.82507393 70.92505845 62.96691062 69.34765625 67.23046875 C66.85755348 73.87640856 64.01413826 80.35858761 61.16015625 86.85546875 C60.69697998 87.9132251 60.23380371 88.97098145 59.7565918 90.06079102 C51.83586575 107.99225925 51.83586575 107.99225925 49.66015625 110.16796875 C47.28515625 110.48046875 47.28515625 110.48046875 44.66015625 110.16796875 C41.20246535 106.66380351 39.9280154 101.94747983 38.28515625 97.41796875 C34.65508788 87.65958183 30.79086525 78.00643012 26.8482666 68.37133789 C23.30874442 59.71893947 19.81058397 51.05209163 16.37109375 42.359375 C15.64327073 40.52382792 14.91540631 38.68829725 14.1875 36.8527832 C13.11541527 34.14878555 12.04540549 31.44406136 10.98193359 28.73666382 C9.99198314 26.21682999 8.99471803 23.70000016 7.99609375 21.18359375 C7.70286224 20.43086685 7.40963074 19.67813995 7.10751343 18.90260315 C5.67113376 15.30204938 4.32526701 12.0254396 1.66015625 9.16796875 C-0.79069568 8.29815611 -0.79069568 8.29815611 -3.46484375 7.98046875 C-8.27294838 7.23486412 -8.27294838 7.23486412 -9.33984375 6.16796875 C-9.46484375 3.66796875 -9.46484375 3.66796875 -9.33984375 1.16796875 C-7.26983055 -0.90204445 -2.8521845 0.0038718 0 0 Z "
     fill="#003465"
     transform="translate(79.33984375,140.83203125)"
     id="path3"
     style="fill:#000000" />
  <path
     d="M0 0 C0.99 0.33 1.98 0.66 3 1 C1.74896484 1.92619141 1.74896484 1.92619141 0.47265625 2.87109375 C-13.74864032 13.50791983 -26.31046283 25.47612424 -29 44 C-29.33856308 49.77939548 -29.36595547 55.56542693 -29.390625 61.35351562 C-29.41382812 62.51947266 -29.43703125 63.68542969 -29.4609375 64.88671875 C-29.46915527 65.94076904 -29.47737305 66.99481934 -29.48583984 68.08081055 C-30.12532708 71.71155553 -31.41841164 73.40984769 -34 76 C-36.6875 76.375 -36.6875 76.375 -39 76 C-40 75 -40 75 -40.3125 71.8125 C-40 68 -40 68 -38.06640625 65.37890625 C-35.36923623 60.96859988 -35.11941341 57.19227798 -34.625 52.125 C-32.95339908 38.3833867 -29.53696022 26.42224767 -20 16 C-19.34773438 15.20851563 -18.69546875 14.41703125 -18.0234375 13.6015625 C-14.03314053 8.84093793 -10.57001345 5.73245943 -5 3 C-4.0925 2.401875 -3.185 1.80375 -2.25 1.1875 C-1.5075 0.795625 -0.765 0.40375 0 0 Z "
     fill="#050000"
     transform="translate(132,29)"
     id="path4"
     style="fill:#808080" />
  <path
     d="M0 0 C3.35066172 1.385988 4.83371851 2.7756177 6.6875 5.875 C7.10386719 6.55304687 7.52023438 7.23109375 7.94921875 7.9296875 C10.54422427 13.04252366 10.94264058 18.74618642 9.3515625 24.23828125 C5.70193917 33.26875949 0.13944593 38.95784095 -8.5703125 43.1875 C-11.21093439 44.07053755 -13.23404767 44.22969846 -16 44 C-17.56033623 42.43966377 -17.20707559 40.91052864 -17.25 38.75 C-17.22390861 34.64060644 -16.39746574 32.3964098 -14 29 C-14 28.01 -14 27.02 -14 26 C-11.5625 26.375 -11.5625 26.375 -9 27 C-7.50501087 29.98997825 -7.88422554 32.70042775 -8 36 C-8.33 36.99 -8.66 37.98 -9 39 C-3.49595767 35.89515561 0.9379216 33.12541815 3.41015625 27.1328125 C5.30974305 20.26410791 4.00449087 15.39103981 0.890625 9.15234375 C-0.43451015 5.9499338 -0.29115168 3.42103221 0 0 Z "
     fill="#030000"
     transform="translate(150,3)"
     id="path5"
     style="fill:#808080" />
  <path
     d="M0 0 C0.33 0.99 0.66 1.98 1 3 C-0.375 4.5 -0.375 4.5 -2 6 C-2.66 6 -3.32 6 -4 6 C-5.62514468 7.45833358 -5.62514468 7.45833358 -7 9 C-7.66 8.67 -8.32 8.34 -9 8 C-6.03 5.36 -3.06 2.72 0 0 Z "
     fill="#9B0101"
     transform="translate(96,88)"
     id="path6"
     style="fill:#b3b3b3" />
  <path
     d=""
     fill="#000000"
     transform="translate(0,0)"
     id="path7" />
</svg>
